<svg xmlns="http://www.w3.org/2000/svg"  viewBox="0 0 100 100" width="100px" height="100px"><path fill="#d1d1d1" d="M86.063,25.873c0-10.997-8.92-19.912-19.924-19.912c-0.166,0-0.327,0.021-0.492,0.025H40.864 c-0.265-0.01-0.525-0.04-0.793-0.04c-11.031,0-19.974,8.957-19.974,20.007c0,4.926,1.785,9.43,4.733,12.916 c-2.376,3.142-3.802,7.04-3.802,11.278c0,4.71,1.752,9.004,4.626,12.3c-2.914,3.447-4.676,7.892-4.676,12.749 c0,10.949,8.919,19.825,19.921,19.825S60.82,86.144,60.82,75.196c0-2.896-0.639-5.639-1.76-8.119 c2.4,1.175,5.089,1.853,7.942,1.853c9.995,0,18.098-8.098,18.098-18.088c0-4.419-1.59-8.463-4.223-11.604 C84.089,35.703,86.063,31.024,86.063,25.873z"/><path fill="#f2f2f2" d="M83.966,23.927c0-10.997-8.92-19.912-19.924-19.912c-0.166,0-0.327,0.021-0.492,0.025H38.767 C38.502,4.03,38.241,4,37.974,4C26.943,4,18,12.957,18,24.007c0,4.926,1.785,9.43,4.733,12.916 c-2.376,3.142-3.802,7.04-3.802,11.278c0,4.71,1.752,9.004,4.626,12.3c-2.914,3.447-4.676,7.892-4.676,12.749 c0,10.949,8.919,19.825,19.921,19.825s19.921-8.876,19.921-19.825c0-2.896-0.639-5.639-1.76-8.119 c2.4,1.175,5.089,1.853,7.942,1.853c9.995,0,18.098-8.098,18.098-18.088c0-4.419-1.59-8.463-4.223-11.604 C81.992,33.758,83.966,29.079,83.966,23.927z"/><path fill="#96c362" d="M38,86.649L38,86.649c-7.18,0-13-6.211-13-13.873l0,0c0-7.662,5.832-13.768,13-13.873h13v13.873 C51,80.438,45.18,86.649,38,86.649z"/><path fill="#f4a3be" d="M64.019,35.649H50v-25h14.019c7.17,0,12.981,5.596,12.981,12.5l0,0 C77,30.052,71.189,35.649,64.019,35.649z"/><path fill="#f4665c" d="M37.019,10.649H50v24.868H37.019C30.381,35.517,25,29.951,25,23.083l0,0 C25,16.215,30.381,10.649,37.019,10.649z"/><path fill="#707cc0" d="M37.801,35.517h13.825v24.944H37.801C30.731,60.461,25,54.878,25,47.989l0,0 C25,41.101,30.731,35.517,37.801,35.517z"/><circle cx="65.148" cy="49.612" r="11.5" fill="#70bfff"/><path fill="#40396e" d="M38.463,87.964c-7.995,0-14.5-6.505-14.5-14.5c0-7.554,5.667-13.762,13.181-14.441 c0.82-0.071,1.554,0.534,1.629,1.359c0.074,0.825-0.534,1.554-1.359,1.629c-5.958,0.538-10.45,5.461-10.45,11.453 c0,6.341,5.159,11.5,11.5,11.5s11.5-5.159,11.5-11.5v-13c0-0.829,0.671-1.5,1.5-1.5s1.5,0.671,1.5,1.5v13 C52.963,81.459,46.458,87.964,38.463,87.964z"/><path fill="#40396e" d="M64.963,37.01h-13.5c-0.829,0-1.5-0.671-1.5-1.5s0.671-1.5,1.5-1.5h13.5c6.065,0,11-4.935,11-11 s-4.935-11-11-11h-14.5c-0.829,0-1.5-0.671-1.5-1.5s0.671-1.5,1.5-1.5h14.5c7.72,0,14,6.28,14,14S72.683,37.01,64.963,37.01z"/><path fill="#40396e" d="M36.529,37c-0.02,0-0.041,0-0.061-0.001c-7.531-0.302-13.431-6.446-13.431-13.989 c0-7.72,6.28-14,14-14h13.5c0.829,0,1.5,0.671,1.5,1.5s-0.671,1.5-1.5,1.5h-13.5c-6.065,0-11,4.935-11,11 c0,5.926,4.635,10.754,10.551,10.991c0.828,0.033,1.472,0.731,1.439,1.559C37.995,36.367,37.33,37,36.529,37z"/><path fill="#40396e" d="M51.509,63.01c-0.828,0-1.499-0.67-1.5-1.498l-0.032-25.71c-0.001-0.829,0.67-1.501,1.498-1.502 c0,0,0.001,0,0.002,0c0.828,0,1.499,0.67,1.5,1.498l0.032,25.71c0.001,0.829-0.67,1.501-1.498,1.502 C51.51,63.01,51.509,63.01,51.509,63.01z"/><path fill="#40396e" d="M37.262,61.942c-0.03,0-0.06-0.001-0.09-0.002c-1.709-0.101-3.364-0.508-4.918-1.209 c-5.009-2.261-8.245-7.272-8.245-12.766c0-7.223,5.413-13.211,12.591-13.93c0.817-0.084,1.559,0.519,1.642,1.343 c0.083,0.824-0.519,1.56-1.343,1.642c-5.638,0.564-9.89,5.269-9.89,10.944c0,4.317,2.543,8.255,6.479,10.032 c1.219,0.55,2.518,0.87,3.86,0.949c0.827,0.049,1.458,0.759,1.409,1.586C38.71,61.327,38.05,61.942,37.262,61.942z"/><path fill="#40396e" d="M65.436,61.991c-6.911,0-12.534-5.599-12.534-12.48s5.623-12.48,12.534-12.48 S77.97,42.628,77.97,49.51S72.347,61.991,65.436,61.991z M65.436,40.03c-5.257,0-9.534,4.253-9.534,9.48s4.277,9.48,9.534,9.48 s9.534-4.253,9.534-9.48S70.693,40.03,65.436,40.03z"/></svg>